<svg xmlns="http://www.w3.org/2000/svg" width="46.114" height="26.222" viewBox="0 0 46.114 26.222">
  <g id="bus" transform="translate(0.1 -103.908)">
    <g id="Group_184" data-name="Group 184" transform="translate(9.183 122.374)">
      <g id="Group_183" data-name="Group 183">
        <path id="Path_50" data-name="Path 50" d="M100.448,297.538a2.282,2.282,0,0,0-4.309,0,2.146,2.146,0,0,0,0,1.53,2.282,2.282,0,0,0,4.309,0A2.148,2.148,0,0,0,100.448,297.538Zm-2.154,1.53a.765.765,0,1,1,.765-.765A.765.765,0,0,1,98.293,299.069Z" transform="translate(-95.997 -296.008)" fill="#06f" stroke="#05092e" stroke-width="0.2"/>
      </g>
    </g>
    <g id="Group_186" data-name="Group 186" transform="translate(3.061 107.069)">
      <g id="Group_185" data-name="Group 185" transform="translate(0 0)">
        <path id="Path_51" data-name="Path 51" d="M38.122,136.008H32v7.652H45.774v-7.652Zm0,6.122H33.53v-4.591h4.591Zm6.122,0H39.652v-4.591h4.591Z" transform="translate(-32 -136.008)" fill="#06f" stroke="#05092e" stroke-width="0.2"/>
      </g>
    </g>
    <g id="Group_188" data-name="Group 188" transform="translate(0 104.008)">
      <g id="Group_187" data-name="Group 187" transform="translate(0 0)">
        <path id="Path_52" data-name="Path 52" d="M45.738,113.379l-3.316-7.958a2.29,2.29,0,0,0-2.12-1.413H2.3A2.3,2.3,0,0,0,0,106.3v16.835a2.3,2.3,0,0,0,2.3,2.3H6.183a5.35,5.35,0,0,0,10.591,0H29.14a5.35,5.35,0,0,0,10.591,0h3.887a2.3,2.3,0,0,0,2.3-2.3v-8.877A2.275,2.275,0,0,0,45.738,113.379Zm-3.65-4.78L44,113.191h-7.27V108.6Zm-26.86,16.835a3.826,3.826,0,1,1,.077-.765A3.826,3.826,0,0,1,15.228,125.435Zm3.137-1.53H16.774a5.35,5.35,0,0,0-10.591,0H2.3a.765.765,0,0,1-.765-.765v-5.357H18.366Zm7.652-7.652V123.9H19.9V108.6h6.122Zm12.167,9.183a3.826,3.826,0,1,1,.077-.765A3.826,3.826,0,0,1,38.185,125.435Zm6.2-2.3a.765.765,0,0,1-.765.765H39.731a5.35,5.35,0,0,0-10.591,0H27.548v-6.122H44.384Zm0-6.887H27.548v-9.183H18.366v9.183H1.53V106.3a.765.765,0,0,1,.765-.765H40.3a.765.765,0,0,1,.706.471l.442,1.06H29.079v7.652h15.3ZM35.2,108.6v4.591H30.609V108.6Z" transform="translate(0 -104.008)" fill="#06f" stroke="#05092e" stroke-width="0.2"/>
      </g>
    </g>
    <g id="Group_190" data-name="Group 190" transform="translate(32.14 122.374)">
      <g id="Group_189" data-name="Group 189">
        <path id="Path_53" data-name="Path 53" d="M340.448,297.538a2.282,2.282,0,0,0-4.309,0,2.147,2.147,0,0,0,0,1.53,2.282,2.282,0,0,0,4.309,0A2.147,2.147,0,0,0,340.448,297.538Zm-2.154,1.53a.765.765,0,1,1,.765-.765A.765.765,0,0,1,338.293,299.069Z" transform="translate(-335.997 -296.008)" fill="#06f" stroke="#05092e" stroke-width="0.2"/>
      </g>
    </g>
  </g>
</svg>
