<svg xmlns="http://www.w3.org/2000/svg" width="46.114" height="26.222" viewBox="0 0 46.114 26.222">
    <defs>
        <style>
            .cls-1{fill:#05092e;stroke:#05092e;stroke-width:.2px}
        </style>
    </defs>
    <g id="bus" transform="translate(.1 -103.908)">
        <g id="Group_184" transform="translate(9.183 122.374)">
            <g id="Group_183">
                <path id="Path_50" d="M100.448 297.538a2.282 2.282 0 0 0-4.309 0 2.146 2.146 0 0 0 0 1.53 2.282 2.282 0 0 0 4.309 0 2.148 2.148 0 0 0 0-1.53zm-2.154 1.53a.765.765 0 1 1 .765-.765.765.765 0 0 1-.766.766z" class="cls-1" transform="translate(-95.997 -296.008)"/>
            </g>
        </g>
        <g id="Group_186" transform="translate(3.061 107.069)">
            <g id="Group_185">
                <path id="Path_51" d="M38.122 136.008H32v7.652h13.774v-7.652zm0 6.122H33.53v-4.591h4.591zm6.122 0h-4.592v-4.591h4.591z" class="cls-1" transform="translate(-32 -136.008)"/>
            </g>
        </g>
        <g id="Group_188" transform="translate(0 104.008)">
            <g id="Group_187">
                <path id="Path_52" d="M45.738 113.379l-3.316-7.958a2.29 2.29 0 0 0-2.12-1.413H2.3A2.3 2.3 0 0 0 0 106.3v16.835a2.3 2.3 0 0 0 2.3 2.3h3.883a5.35 5.35 0 0 0 10.591 0H29.14a5.35 5.35 0 0 0 10.591 0h3.887a2.3 2.3 0 0 0 2.3-2.3v-8.877a2.275 2.275 0 0 0-.18-.879zm-3.65-4.78L44 113.191h-7.27V108.6zm-26.86 16.835a3.826 3.826 0 1 1 .077-.765 3.826 3.826 0 0 1-.077.766zm3.137-1.53h-1.591a5.35 5.35 0 0 0-10.591 0H2.3a.765.765 0 0 1-.765-.765v-5.357h16.831zm7.652-7.652v7.648H19.9v-15.3h6.122zm12.167 9.183a3.826 3.826 0 1 1 .077-.765 3.826 3.826 0 0 1-.076.765zm6.2-2.3a.765.765 0 0 1-.765.765h-3.888a5.35 5.35 0 0 0-10.591 0h-1.592v-6.122h16.836zm0-6.887H27.548v-9.183h-9.182v9.183H1.53V106.3a.765.765 0 0 1 .765-.765H40.3a.765.765 0 0 1 .706.471l.442 1.06H29.079v7.652h15.3zM35.2 108.6v4.591h-4.591V108.6z" class="cls-1" transform="translate(0 -104.008)"/>
            </g>
        </g>
        <g id="Group_190" transform="translate(32.14 122.374)">
            <g id="Group_189">
                <path id="Path_53" d="M340.448 297.538a2.282 2.282 0 0 0-4.309 0 2.147 2.147 0 0 0 0 1.53 2.282 2.282 0 0 0 4.309 0 2.147 2.147 0 0 0 0-1.53zm-2.154 1.53a.765.765 0 1 1 .765-.765.765.765 0 0 1-.766.766z" class="cls-1" transform="translate(-335.997 -296.008)"/>
            </g>
        </g>
    </g>
</svg>
