<svg xmlns="http://www.w3.org/2000/svg" id="cctv-camera" width="33.959" height="33.959" viewBox="0 0 33.959 33.959">
    <defs>
        <style>
            .cls-1{fill:#05092e}
        </style>
    </defs>
    <path id="Path_54" d="M27.067 15.925l3.878 1.73a.995.995 0 0 0 1.385-.736l1.612-9.144a.995.995 0 0 0-1.05-1.165l-4.236.3a3.653 3.653 0 0 0-3.014-3.628L7.355.056a3.652 3.652 0 0 0-4.226 2.959l-1.382 7.838a3.652 3.652 0 0 0 2.959 4.226l.327.058-.288 1.633a2.324 2.324 0 0 0 1.883 2.689l1.633.288-.385 2.182a2.994 2.994 0 0 0-2.322 1.949H1.99v-2.986a.995.995 0 0 0-1.99 0v7.959a.995.995 0 0 0 1.99 0v-2.984h3.563a2.984 2.984 0 1 0 4.282-3.592l.385-2.183 1.633.288a2.324 2.324 0 0 0 2.689-1.88l.288-1.633 8.165 1.44a3.653 3.653 0 0 0 4.073-2.378zm1.285-7l3.41-.241-1.17 6.635-3.122-1.392zm-3.38-3.742l.326.058a1.66 1.66 0 0 1 1.345 1.921L25.261 15a1.66 1.66 0 0 1-1.921 1.345l-.327-.058zM8.367 25.867a.995.995 0 1 1 .995-.995 1 1 0 0 1-.995.995zm4.215-7.715a.332.332 0 0 1-.384.269L6.973 17.5a.332.332 0 0 1-.269-.384l.288-1.633 5.879 1.037zm-7.531-5.033A1.66 1.66 0 0 1 3.706 11.2l1.382-7.84a1.66 1.66 0 0 1 1.921-1.345l16 2.822-1.958 11.1z" class="cls-1"/>
    <path id="Path_55" d="M102.86 68.113a.995.995 0 1 0 .807 1.153.995.995 0 0 0-.807-1.153z" class="cls-1" transform="translate(-94.948 -63.581)"/>
    <path id="Path_56" d="M161.949 78.532a.995.995 0 1 0 .807 1.153.995.995 0 0 0-.807-1.153z" class="cls-1" transform="translate(-150.118 -73.309)"/>
    <path id="Path_57" d="M246.024 429.656a1 1 0 0 0-1.407 0 10.957 10.957 0 0 1-15.477 0 .995.995 0 0 0-1.407 1.407 12.947 12.947 0 0 0 18.291 0 1 1 0 0 0 0-1.407z" class="cls-1" transform="translate(-212.356 -400.887)"/>
    <path id="Path_58" d="M270.16 387.229a1 1 0 0 0 0 1.407 8.964 8.964 0 0 0 12.663 0 .995.995 0 0 0-1.407-1.407 6.972 6.972 0 0 1-9.849 0 1 1 0 0 0-1.407 0z" class="cls-1" transform="translate(-251.969 -361.273)"/>
    <path id="Path_59" d="M312.587 344.8a1 1 0 0 0 0 1.407 4.98 4.98 0 0 0 7.035 0 .995.995 0 1 0-1.407-1.407 2.988 2.988 0 0 1-4.221 0 1 1 0 0 0-1.407 0z" class="cls-1" transform="translate(-291.582 -321.661)"/>
    <circle id="Ellipse_23" cx=".995" cy=".995" r=".995" class="cls-1" transform="translate(23.527 20.036)"/>
</svg>
