<svg id="cctv-camera" xmlns="http://www.w3.org/2000/svg" width="33.958" height="33.958" viewBox="0 0 33.958 33.958">
  <path id="Path_54" data-name="Path 54" d="M27.067,15.925l3.878,1.73a.995.995,0,0,0,1.385-.736l1.612-9.144a.995.995,0,0,0-1.05-1.165l-4.236.3a3.653,3.653,0,0,0-3.014-3.628L7.355.056A3.652,3.652,0,0,0,3.129,3.015L1.747,10.853a3.652,3.652,0,0,0,2.959,4.226l.327.058-.288,1.633a2.324,2.324,0,0,0,1.883,2.689l1.633.288-.385,2.182a2.994,2.994,0,0,0-2.322,1.949H1.99V20.892a.995.995,0,0,0-1.99,0v7.959a.995.995,0,0,0,1.99,0V25.867H5.553a2.984,2.984,0,1,0,4.282-3.592l.385-2.183,1.633.288A2.324,2.324,0,0,0,14.542,18.5l.288-1.633,8.165,1.44a3.653,3.653,0,0,0,4.073-2.378Zm1.285-7,3.41-.241-1.17,6.635-3.122-1.392ZM24.972,5.183l.326.058a1.66,1.66,0,0,1,1.345,1.921L25.261,15a1.66,1.66,0,0,1-1.921,1.345l-.327-.058ZM8.367,25.867a.995.995,0,1,1,.995-.995A1,1,0,0,1,8.367,25.867Zm4.215-7.715a.332.332,0,0,1-.384.269L6.973,17.5a.332.332,0,0,1-.269-.384l.288-1.633,5.879,1.037ZM5.051,13.119A1.66,1.66,0,0,1,3.706,11.2L5.088,3.36A1.66,1.66,0,0,1,7.009,2.015l16,2.822-1.958,11.1Z" transform="translate(0 0)" fill="#06f"/>
  <path id="Path_55" data-name="Path 55" d="M102.86,68.113a.995.995,0,1,0,.807,1.153A.995.995,0,0,0,102.86,68.113Z" transform="translate(-94.948 -63.581)" fill="#06f"/>
  <path id="Path_56" data-name="Path 56" d="M161.949,78.532a.995.995,0,1,0,.807,1.153A.995.995,0,0,0,161.949,78.532Z" transform="translate(-150.118 -73.309)" fill="#06f"/>
  <path id="Path_57" data-name="Path 57" d="M246.024,429.656a1,1,0,0,0-1.407,0,10.957,10.957,0,0,1-15.477,0,.995.995,0,0,0-1.407,1.407,12.947,12.947,0,0,0,18.291,0A1,1,0,0,0,246.024,429.656Z" transform="translate(-212.356 -400.887)" fill="#06f"/>
  <path id="Path_58" data-name="Path 58" d="M270.16,387.229a1,1,0,0,0,0,1.407,8.964,8.964,0,0,0,12.663,0,.995.995,0,0,0-1.407-1.407,6.972,6.972,0,0,1-9.849,0A1,1,0,0,0,270.16,387.229Z" transform="translate(-251.969 -361.273)" fill="#06f"/>
  <path id="Path_59" data-name="Path 59" d="M312.587,344.8a1,1,0,0,0,0,1.407,4.98,4.98,0,0,0,7.035,0,.995.995,0,1,0-1.407-1.407,2.988,2.988,0,0,1-4.221,0A1,1,0,0,0,312.587,344.8Z" transform="translate(-291.582 -321.661)" fill="#06f"/>
  <circle id="Ellipse_23" data-name="Ellipse 23" cx="0.995" cy="0.995" r="0.995" transform="translate(23.527 20.036)" fill="#06f"/>
</svg>
