<svg xmlns="http://www.w3.org/2000/svg" id="classroom" width="33.959" height="33.958" viewBox="0 0 33.959 33.958">
    <defs>
        <style>
            .cls-1{fill:#05092e}
        </style>
    </defs>
    <path id="Path_60" d="M37.959 3.98a3.98 3.98 0 1 0-3.98 3.98 3.984 3.984 0 0 0 3.98-3.98zm-3.98 1.99a1.99 1.99 0 1 1 1.99-1.99 1.992 1.992 0 0 1-1.989 1.989zm0 0" class="cls-1" transform="translate(-28.01)"/>
    <path id="Path_61" d="M215.969 304.985a2.985 2.985 0 1 0-2.985 2.985 2.988 2.988 0 0 0 2.985-2.985zm-2.985.995a.995.995 0 1 1 .995-.995 1 1 0 0 1-.994.995zm0 0" class="cls-1" transform="translate(-196.072 -281.97)"/>
    <path id="Path_62" d="M335.969 304.985a2.985 2.985 0 1 0-2.985 2.985 2.988 2.988 0 0 0 2.985-2.985zm-2.985.995a.995.995 0 1 1 .995-.995 1 1 0 0 1-.994.995zm0 0" class="cls-1" transform="translate(-308.113 -281.97)"/>
    <path id="Path_63" d="M32.964 0H12.933a1 1 0 0 0-.995.995v6.964H4.974A4.98 4.98 0 0 0 0 12.933v20.03a1 1 0 0 0 .995.995h27.857a1 1 0 0 0 .995-.995v-1.99a4.973 4.973 0 0 0-8.954-2.981 4.969 4.969 0 0 0-7.959 0 4.973 4.973 0 0 0-8.954 2.982v.995H1.99V12.933a2.988 2.988 0 0 1 2.984-2.984h11.939a.995.995 0 0 1 0 1.99H8.954a1 1 0 0 0-.995.995V20.2a2.985 2.985 0 1 0 1.99 0v-6.272h1.99v3.051a1 1 0 0 0 .995.995h20.03a1 1 0 0 0 .995-.995V.995A1 1 0 0 0 32.964 0zm-8.092 27.989a2.988 2.988 0 0 1 2.985 2.985v.995h-5.97v-.995a2.988 2.988 0 0 1 2.985-2.985zm-7.959 0a2.988 2.988 0 0 1 2.987 2.985v.995h-5.972v-.995a2.988 2.988 0 0 1 2.985-2.985zM5.969 30.974a2.985 2.985 0 1 1 5.969 0v.995H5.969zm2.985-6.964a.995.995 0 1 1 .995-.995 1 1 0 0 1-.995.995zm23.015-8.025H13.928v-2.057h2.985a2.979 2.979 0 0 0 2.961-3.353L29.3 5.864a.995.995 0 0 0-.89-1.78L18.983 8.8a2.974 2.974 0 0 0-2.07-.837h-2.985V1.99h18.041zm0 0" class="cls-1"/>
</svg>
