<svg id="classroom" xmlns="http://www.w3.org/2000/svg" width="33.959" height="33.958" viewBox="0 0 33.959 33.958">
  <path id="Path_60" data-name="Path 60" d="M37.959,3.98a3.98,3.98,0,1,0-3.98,3.98A3.984,3.984,0,0,0,37.959,3.98Zm-3.98,1.99a1.99,1.99,0,1,1,1.99-1.99A1.992,1.992,0,0,1,33.98,5.969Zm0,0" transform="translate(-28.01 0)" fill="#06f"/>
  <path id="Path_61" data-name="Path 61" d="M215.969,304.985a2.985,2.985,0,1,0-2.985,2.985A2.988,2.988,0,0,0,215.969,304.985Zm-2.985.995a.995.995,0,1,1,.995-.995A1,1,0,0,1,212.985,305.98Zm0,0" transform="translate(-196.072 -281.97)" fill="#06f"/>
  <path id="Path_62" data-name="Path 62" d="M335.969,304.985a2.985,2.985,0,1,0-2.985,2.985A2.988,2.988,0,0,0,335.969,304.985Zm-2.985.995a.995.995,0,1,1,.995-.995A1,1,0,0,1,332.985,305.98Zm0,0" transform="translate(-308.113 -281.97)" fill="#06f"/>
  <path id="Path_63" data-name="Path 63" d="M32.964,0H12.933a1,1,0,0,0-.995.995V7.959H4.974A4.98,4.98,0,0,0,0,12.933v20.03a1,1,0,0,0,.995.995H28.852a1,1,0,0,0,.995-.995v-1.99a4.973,4.973,0,0,0-8.954-2.981,4.969,4.969,0,0,0-7.959,0A4.973,4.973,0,0,0,3.98,30.974v.995H1.99V12.933A2.988,2.988,0,0,1,4.974,9.949H16.913a.995.995,0,0,1,0,1.99H8.954a1,1,0,0,0-.995.995V20.2a2.985,2.985,0,1,0,1.99,0V13.928h1.99v3.051a1,1,0,0,0,.995.995h20.03a1,1,0,0,0,.995-.995V.995A1,1,0,0,0,32.964,0ZM24.872,27.989a2.988,2.988,0,0,1,2.985,2.985v.995H21.887v-.995A2.988,2.988,0,0,1,24.872,27.989Zm-7.959,0A2.988,2.988,0,0,1,19.9,30.974v.995H13.928v-.995A2.988,2.988,0,0,1,16.913,27.989ZM5.969,30.974a2.985,2.985,0,1,1,5.969,0v.995H5.969ZM8.954,24.01a.995.995,0,1,1,.995-.995A1,1,0,0,1,8.954,24.01Zm23.015-8.025H13.928V13.928h2.985a2.979,2.979,0,0,0,2.961-3.353L29.3,5.864a.995.995,0,0,0-.89-1.78L18.983,8.8a2.974,2.974,0,0,0-2.07-.837H13.928V1.99H31.969Zm0,0" fill="#06f"/>
</svg>
