<svg xmlns="http://www.w3.org/2000/svg" width="49.468" height="46.37" viewBox="0 0 49.468 46.37">
  <g id="library" transform="translate(0 -16.034)">
    <path id="Path_64" data-name="Path 64" d="M265.615,56.033a6.762,6.762,0,1,0,6.762,6.762A6.77,6.77,0,0,0,265.615,56.033Zm0,11.592a4.83,4.83,0,1,1,4.83-4.83A4.836,4.836,0,0,1,265.615,67.625Z" transform="translate(-233.847 -36.135)" fill="#05092e"/>
    <path id="Path_65" data-name="Path 65" d="M48.584,39.019l-7.413-7.413a10.627,10.627,0,1,0-17.594,1.817H3.87a.966.966,0,0,0-.753.36,5.769,5.769,0,0,0,0,7.008.966.966,0,0,0,.753.36H6.119a5.951,5.951,0,0,0,0,3.864H1.938a.966.966,0,0,0-.753.36,5.769,5.769,0,0,0,0,7.008.966.966,0,0,0,.753.36H3.221a5.79,5.79,0,0,0,.862,5.436.966.966,0,0,0,.753.36h5.8v2.9a.966.966,0,0,0,1.649.683L14.5,59.906l2.215,2.215a.966.966,0,0,0,1.649-.683v-2.9H32.852a.966.966,0,1,0,0-1.932H32.39a3.974,3.974,0,0,1,0-3.864h.462a.966.966,0,1,0,0-1.932h-3.36a3.974,3.974,0,0,1,0-3.864H35.75a.966.966,0,1,0,0-1.932h-.462a3.974,3.974,0,0,1,0-3.864h.462a.966.966,0,1,0,0-1.932H31.425a3.846,3.846,0,0,1-.5-1.966q.419.033.847.034a10.561,10.561,0,0,0,5.2-1.36l7.356,7.356a3.015,3.015,0,1,0,4.264-4.264ZM16.429,59.105,15.18,57.856a.966.966,0,0,0-1.366,0l-1.249,1.249V55.641h3.864v3.464Zm13.842-2.5H18.361v-.966h.966a.966.966,0,1,0,0-1.932H9.667a.966.966,0,1,0,0,1.932h.966v.966H5.34a3.971,3.971,0,0,1,0-3.864H30.27A5.951,5.951,0,0,0,30.27,56.607Zm-2.9-5.8H2.442a3.974,3.974,0,0,1,0-3.864h24.93A5.951,5.951,0,0,0,27.372,50.811Zm5.8-5.8H8.239a3.974,3.974,0,0,1,0-3.864h24.93A5.951,5.951,0,0,0,33.169,45.015Zm-3.863-5.8H4.374a3.974,3.974,0,0,1,0-3.864H25.666A10.589,10.589,0,0,0,29,36.92,5.931,5.931,0,0,0,29.306,39.219ZM23.074,26.66a8.694,8.694,0,1,1,8.694,8.694,8.7,8.7,0,0,1-8.694-8.694ZM47.218,41.917a1.084,1.084,0,0,1-1.532,0L38.579,34.81a10.716,10.716,0,0,0,1.512-1.551l7.126,7.126a1.083,1.083,0,0,1,0,1.532Z" transform="translate(0)" fill="#05092e"/>
  </g>
</svg>
