<svg xmlns="http://www.w3.org/2000/svg" width="33.959" height="40.575" viewBox="0 0 33.959 40.575">
    <defs>
        <style>
            .cls-1{fill:#05092e}
        </style>
    </defs>
    <g id="microscope" transform="translate(-41.742)">
        <path id="Path_66" d="M75.528 27.742a1.189 1.189 0 0 0-1.633-.4l-8.7 5.285a5.953 5.953 0 0 0-5.622-4.019H52.44a3.566 3.566 0 0 1 0-7.132h2.743a1.19 1.19 0 0 0 .611-.169l1.474-.883 2.032 3.391a1.189 1.189 0 0 0 1.635.4l1.036-.623 1.829 3.04a1.189 1.189 0 0 0 1.631.407l4.076-2.449a1.189 1.189 0 0 0 .407-1.631l-1.824-3.035 1-.6a1.189 1.189 0 0 0 .407-1.631c-.028-.047-8.579-14.28-8.61-14.326a1.189 1.189 0 0 0-1.592-.346l-1.019.612-1.84-3.056A1.189 1.189 0 0 0 54.8.17l-4.071 2.449a1.189 1.189 0 0 0-.407 1.631l1.837 3.057-1.019.612a1.189 1.189 0 0 0-.407 1.631l2.478 4.125-1.112.673a10.7 10.7 0 0 0 .341 21.393h1.189V38.2h-3.566a1.189 1.189 0 0 0 0 2.377h19.019a1.189 1.189 0 0 0 0-2.377h-3.566v-2.985l9.613-5.839a1.189 1.189 0 0 0 .399-1.634zm-8.266-4.578l-2.038 1.224-1.211-2.016 2.038-1.224zM52.972 4.045L55.01 2.82l1.224 2.038L54.2 6.082zm.411 5.3L59.5 5.671 66.843 17.9l-6.113 3.672-1.423-2.372.513-.307a3.944 3.944 0 1 0-4.067-6.759l-.507.306zm-9.264 15.7a8.331 8.331 0 0 1 8.32-8.322 1.19 1.19 0 0 0 .615-.171l3.928-2.376a1.567 1.567 0 1 1 1.618 2.682L54.854 19.1H52.44a5.944 5.944 0 0 0 0 11.887h2.381a5.918 5.918 0 0 0-1.072 2.377H52.44a8.33 8.33 0 0 1-8.321-8.321zM56.006 38.2v-3.648a3.566 3.566 0 1 1 7.132 0V38.2z" class="cls-1"/>
        <circle id="Ellipse_24" cx="1" cy="1" r="1" class="cls-1" transform="translate(58.462 33.288)"/>
    </g>
</svg>
