<svg xmlns="http://www.w3.org/2000/svg" width="33.959" height="40.575" viewBox="0 0 33.959 40.575">
  <g id="microscope" transform="translate(-41.742 0)">
    <path id="Path_66" data-name="Path 66" d="M75.528,27.742a1.189,1.189,0,0,0-1.633-.4l-8.7,5.285a5.953,5.953,0,0,0-5.622-4.019H52.44a3.566,3.566,0,0,1,0-7.132h2.743a1.19,1.19,0,0,0,.611-.169l1.474-.883L59.3,23.815a1.189,1.189,0,0,0,1.635.4l1.036-.623L63.8,26.632a1.189,1.189,0,0,0,1.631.407l4.076-2.449a1.189,1.189,0,0,0,.407-1.631l-1.824-3.035,1-.6a1.189,1.189,0,0,0,.407-1.631c-.028-.047-8.579-14.28-8.61-14.326a1.189,1.189,0,0,0-1.592-.346l-1.019.612L56.436.577A1.189,1.189,0,0,0,54.8.17L50.729,2.619a1.189,1.189,0,0,0-.407,1.631l1.837,3.057-1.019.612a1.189,1.189,0,0,0-.407,1.631l2.478,4.125-1.112.673a10.7,10.7,0,0,0,.341,21.393h1.189V38.2H50.063a1.189,1.189,0,0,0,0,2.377H69.082a1.189,1.189,0,0,0,0-2.377H65.516V35.215l9.613-5.839A1.189,1.189,0,0,0,75.528,27.742Zm-8.266-4.578-2.038,1.224-1.211-2.016,2.038-1.224ZM52.972,4.045,55.01,2.82l1.224,2.038L54.2,6.082Zm.411,5.3L59.5,5.671,66.843,17.9,60.73,21.572,59.307,19.2l.513-.307a3.944,3.944,0,1,0-4.067-6.759l-.507.306Zm-9.264,15.7a8.331,8.331,0,0,1,8.32-8.322,1.19,1.19,0,0,0,.615-.171l3.928-2.376A1.567,1.567,0,1,1,58.6,16.858L54.854,19.1H52.44a5.944,5.944,0,0,0,0,11.887h2.381a5.918,5.918,0,0,0-1.072,2.377H52.44a8.33,8.33,0,0,1-8.321-8.321ZM56.006,38.2V34.552a3.566,3.566,0,1,1,7.132,0V38.2Z" transform="translate(0 0)" fill="#06f"/>
    <circle id="Ellipse_24" data-name="Ellipse 24" cx="1" cy="1" r="1" transform="translate(58.462 33.288)" fill="#06f"/>
  </g>
</svg>
