<svg xmlns="http://www.w3.org/2000/svg" width="31.208" height="31.141" viewBox="0 0 31.208 31.141">
  <path id="videoconference" d="M28.221.55H2.987A2.99,2.99,0,0,0,0,3.537V22.375a2.99,2.99,0,0,0,2.987,2.987h7.482l-.706,4.5H8.375a.914.914,0,0,0,0,1.828c3.062.007,11.411.005,14.458,0a.914.914,0,1,0,0-1.828H21.32l-.634-4.5h7.535a2.99,2.99,0,0,0,2.987-2.987V3.537A2.99,2.99,0,0,0,28.221.55ZM29.38,3.537v8.505H27.147a3.9,3.9,0,0,0-1.845-2.6,3.008,3.008,0,1,0-4.938,0,3.9,3.9,0,0,0-1.845,2.6h-2V2.378h11.7A1.16,1.16,0,0,1,29.38,3.537ZM22.9,8.9h-.139a1.18,1.18,0,1,1,.139,0Zm-.568,1.828c.281,0,.65,0,1,0a2.063,2.063,0,0,1,1.92,1.314H20.414A2.063,2.063,0,0,1,22.334,10.728ZM2.987,2.378h11.7v9.664H12.65a3.9,3.9,0,0,0-1.845-2.6,3.008,3.008,0,1,0-4.938,0,3.9,3.9,0,0,0-1.845,2.6H1.828V3.537A1.16,1.16,0,0,1,2.987,2.378ZM8.405,8.9H8.266a1.18,1.18,0,1,1,.139,0Zm-.568,1.828c.281,0,.65,0,1,0a2.063,2.063,0,0,1,1.92,1.314H5.916a2.063,2.063,0,0,1,1.92-1.314ZM1.828,22.375V13.87H14.69v9.664H12.65a3.9,3.9,0,0,0-1.845-2.6,3.008,3.008,0,1,0-4.938,0,3.9,3.9,0,0,0-1.845,2.6H2.987a1.16,1.16,0,0,1-1.159-1.159Zm6.439-1.983a1.18,1.18,0,1,1,.139,0Zm-.43,1.828c.281,0,.65,0,1,0a2.063,2.063,0,0,1,1.92,1.314H5.916A2.063,2.063,0,0,1,7.837,22.22Zm3.776,7.638.706-4.5h6.522l.634,4.5Zm8.8-6.324a2.063,2.063,0,0,1,1.92-1.314c.281,0,.65,0,1,0a2.063,2.063,0,0,1,1.92,1.314ZM22.9,20.392h-.139a1.18,1.18,0,1,1,.139,0Zm5.319,3.142H27.147a3.9,3.9,0,0,0-1.845-2.6,3.008,3.008,0,1,0-4.938,0,3.9,3.9,0,0,0-1.845,2.6h-2V13.87H29.38v8.505a1.16,1.16,0,0,1-1.159,1.159Z" transform="translate(0 -0.55)" fill="#06f"/>
</svg>
